<svg width="64" height="63" viewBox="0 0 64 63" fill="none" xmlns="http://www.w3.org/2000/svg">
<path d="M27.354 5.15894L24.779 7.73894L7.73796 24.7789L5.15796 27.3589L7.73796 29.9389L32.446 54.6429L35.023 57.2199L37.603 54.6459L38.462 53.7889C38.462 53.7889 55.587 36.7079 55.743 36.5499C58.5646 33.7386 60.2117 29.9597 60.3507 25.979C60.4896 21.9983 59.1098 18.1138 56.491 15.1126C53.8723 12.1114 50.2104 10.2182 46.2476 9.81663C42.2848 9.41505 38.3176 10.5352 35.15 12.9499L29.934 7.73894L27.354 5.15894Z" fill="#45D108"></path>
<path d="M27.354 5.159L29.934 7.738L35.15 12.954C38.3198 10.5608 42.2788 9.45789 46.2293 9.86751C50.1799 10.2771 53.8284 12.1688 56.4397 15.1615C59.0511 18.1541 60.4311 22.0252 60.3018 25.9949C60.1725 29.9645 58.5435 33.7376 55.743 36.554C55.587 36.71 38.463 53.793 38.463 53.793L37.603 54.65L35.023 57.224L32.446 54.647L7.738 29.934L5.158 27.355L7.738 24.775L24.775 7.738L27.354 5.159ZM27.354 0L24.774 2.58L22.194 5.16L5.158 22.2L2.578 24.78L0 27.355L2.579 29.934L5.159 32.514L29.869 57.224L32.443 59.8L35.02 62.377L37.6 59.8L40.18 57.226L41.039 56.368C41.105 56.308 41.17 56.246 41.239 56.181L41.783 55.638L43.717 53.7L49.617 47.812L58.317 39.131C61.4664 35.9731 63.4282 31.8241 63.8703 27.3861C64.3124 22.9481 63.2076 18.4936 60.743 14.7765C58.2784 11.0593 54.6053 8.30781 50.3452 6.9875C46.0852 5.66719 41.4998 5.85919 37.365 7.531C36.7843 7.76633 36.2177 8.029 35.665 8.319L32.513 5.159L29.933 2.579L27.354 0Z" fill="#E0B942"></path>
<path d="M55.8099 20.9209C55.2026 19.4288 54.3028 18.0732 53.1637 16.9341C52.0246 15.7949 50.669 14.8952 49.1769 14.2879C46.2694 13.1165 43.0213 13.1165 40.1139 14.2879C38.6207 14.8922 37.2649 15.7918 36.1279 16.9329L35.0459 18.0099L27.3579 10.3169L10.3169 27.3579L35.0259 52.0679L35.8859 51.2099L53.1629 33.9699C54.837 32.2953 55.9808 30.1647 56.4516 27.844C56.9223 25.5234 56.6991 23.1155 55.8099 20.9209Z" fill="#F4ACCD"></path>
<path d="M50.3889 19.708C48.8655 18.1851 46.7996 17.3295 44.6454 17.3295C42.4913 17.3295 40.4254 18.1851 38.9019 19.708L38.8789 19.732L35.0389 23.55L27.3539 15.866L15.8669 27.354L35.0299 46.518C35.0299 46.518 50.2299 31.354 50.3889 31.197C51.1433 30.4427 51.7417 29.5472 52.1499 28.5616C52.5582 27.5761 52.7683 26.5197 52.7683 25.453C52.7683 24.3862 52.5582 23.3299 52.1499 22.3443C51.7417 21.3588 51.1433 20.4623 50.3889 19.708ZM29.2889 29.295C28.9103 29.6734 28.428 29.9312 27.9029 30.0355C27.3778 30.1399 26.8336 30.0862 26.339 29.8813C25.8444 29.6764 25.4217 29.3294 25.1243 28.8843C24.8269 28.4391 24.6682 27.9158 24.6682 27.3805C24.6682 26.8451 24.8269 26.3218 25.1243 25.8766C25.4217 25.4315 25.8444 25.0845 26.339 24.8796C26.8336 24.6747 27.3778 24.621 27.9029 24.7254C28.428 24.8298 28.9103 25.0875 29.2889 25.466C29.5404 25.7173 29.7399 26.0158 29.876 26.3443C30.0121 26.6728 30.0822 27.0249 30.0822 27.3805C30.0822 27.736 30.0121 28.0881 29.876 28.4166C29.7399 28.7451 29.5404 29.0436 29.2889 29.295ZM46.5039 27.389L35.0309 38.862L31.2049 35.037C31.2049 35.037 42.6519 23.587 42.6799 23.558C43.1878 23.0501 43.8767 22.7647 44.5949 22.7647C45.3132 22.7647 46.0021 23.0501 46.5099 23.558C47.0178 24.0659 47.3032 24.7547 47.3032 25.473C47.3032 26.1912 47.0178 26.8801 46.5099 27.388" fill="black"></path>
</svg>