<svg xmlns="http://www.w3.org/2000/svg" viewBox="0 0 400 245">
  <g font-size="8" text-anchor="middle" dominant-baseline="central" transform="translate(20 5)">

    <g transform="translate(100 0)">
      <rect width="150" height="85" fill="var(--color-grey)"/>
      <text x="75" y="10" text-anchor="middle">Open Data publishing</text>
    </g>

    <g transform="translate(100 95)">
      <rect width="150" height="140" fill="var(--color-grey)"/>
      <text x="75" y="125" text-anchor="middle">Data processing</text>
    </g>

    <path d="M50 12.5h25v175h100V50h120
        M50 42.5h25m-25 30h25m-25 30h25m-25 30h25m-25 30h25m-25 30 h25m-25 30 h25 v-35
        m100 -55h145 v55h-100
        m100 -55v-100"
      stroke="var(--color-darkgrey)"
      stroke-width="3"
      stroke-linecap="round"
      fill="none"
    />

    <g transform="translate(270 0)">
      <rect width="100" height="85" fill="var(--color-yellow)"/>
      <text x="50" y="20" text-anchor="middle">Live dashboard</text>
    </g>

    <g transform="translate(270 110)">
      <rect width="100" height="45" fill="var(--color-pink)"/>
      <text x="50" y="20" text-anchor="middle">Reference data</text>
    </g>

    <g transform="translate(120 25)">
      <rect width="110" height="45" fill="var(--color-green)"/>
      <text x="55" y="20">Published datasets</text>
    </g>

    <g transform="translate(120 110)">
      <rect width="110" height="45" fill="var(--color-green)"/>
      <text x="55" y="20">Data publishing pipelines</text>
    </g>

    <g transform="translate(120 165)">
      <rect width="110" height="45" fill="var(--color-green)"/>
      <text x="55" y="20">Data extract pipelines</text>
    </g>

    <g>
      <rect id="source" width=50 height=25 fill="var(--color-pink)" />
      <text x=25 y=12.5>Airtable</text>
    </g>

    <g transform="translate(0 30)">
      <use href="#source" /><text x=25 y=12.5>Spektrix</text>
    </g>

    <g transform="translate(0 60)">
      <use href="#source" /><text x=25 y=12.5>Typeform</text>
    </g>

    <g transform="translate(0 90)">
      <use href="#source" /><text x=25 y=12.5>Rosterfy</text>
    </g>

    <g transform="translate(0 120)">
      <use href="#source" /><text x=25 y=12.5>Cision</text>
    </g>

    <g transform="translate(0 150)">
      <use href="#source" /><text><tspan x=25 y=7.5>Sprout</tspan><tspan x=25 dy=10>Social</tspan></text>
    </g>

    <g transform="translate(0 180)">
      <use href="#source" /><text><tspan x=25 y=7.5>Web</tspan><tspan x=25 dy=10>Analytics</tspan></text>
    </g>

    <g transform="translate(0 210)">
      <use href="#source" /><text font-style="italic"><tspan x=25 y=7.5>Others</tspan><tspan x=25 dy=10>&amp; ad hoc</tspan></text>
    </g>
  </g>
  <g transform="translate(15 122.5) rotate(-90)" text-anchor="middle" font-size="10" fill="var(--color-darkgrey)">
    <text>Data sources (systems, third-parties, ad hoc data)</text>
  </g>
</svg>