<svg xmlns="http://www.w3.org/2000/svg" xmlns:xlink="http://www.w3.org/1999/xlink" viewBox="0 -30 660 660"
  preserveAspectRatio="xMidYMid meet">
  <defs>
    <clipPath id="__lottie_element_2">
      <rect width="700" height="600" x="0" y="0"></rect>
    </clipPath>
    <g id="__lottie_element_7">
      <g transform="matrix(0.94325852394104,0.09247344732284546,-0.09247344732284546,0.94325852394104,489.6632385253906,408.1252746582031)"
        opacity="1" style="display: none;">
        <g opacity="1" transform="matrix(1,0,0,1,0,0)">
          <path fill="rgb(1,1,1)" fill-opacity="1"
            d=" M346.593994140625,-11.305000305175781 C344.9259948730469,-9.63700008392334 -12.298999786376953,345.6000061035156 -12.298999786376953,345.6000061035156 C-12.298999786376953,345.6000061035156 -346.593994140625,11.305000305175781 -346.593994140625,11.305000305175781 C-346.593994140625,11.305000305175781 10.630999565124512,-343.9320068359375 12.298999786376953,-345.6000061035156 C12.298999786376953,-345.6000061035156 346.593994140625,-11.305000305175781 346.593994140625,-11.305000305175781z">
          </path>
        </g>
      </g>
    </g>
    <filter id="__lottie_element_13" filterUnits="objectBoundingBox" x="0%" y="0%" width="100%" height="100%">
      <feComponentTransfer in="SourceGraphic">
        <feFuncA type="table" tableValues="1.0 0.0"></feFuncA>
      </feComponentTransfer>
    </filter>
    <mask id="__lottie_element_7_2" mask-type="alpha">
      <g filter="url(#__lottie_element_13)">
        <rect width="700" height="600" x="0" y="0" fill="#ffffff" opacity="0"></rect>
        <use xlink:href="#__lottie_element_7"></use>
      </g>
    </mask>
    <g id="__lottie_element_14">
      <g transform="matrix(0.94325852394104,0.09247344732284546,-0.09247344732284546,0.94325852394104,48.4324951171875,532.6768188476562)"
        opacity="1" style="display: none;">
        <g opacity="1" transform="matrix(1,0,0,1,0,0)">
          <path fill="rgb(1,1,1)" fill-opacity="1"
            d=" M-416.739990234375,-5.818999767303467 C-416.739990234375,-5.818999767303467 -41.9010009765625,369.0199890136719 -41.9010009765625,369.0199890136719 C-41.9010009765625,369.0199890136719 416.739990234375,5.818999767303467 416.739990234375,5.818999767303467 C416.739990234375,5.818999767303467 41.9010009765625,-369.0199890136719 41.9010009765625,-369.0199890136719 C41.9010009765625,-369.0199890136719 -416.739990234375,-5.818999767303467 -416.739990234375,-5.818999767303467z">
          </path>
        </g>
      </g>
    </g>
    <filter id="__lottie_element_20" filterUnits="objectBoundingBox" x="0%" y="0%" width="100%" height="100%">
      <feComponentTransfer in="SourceGraphic">
        <feFuncA type="table" tableValues="1.0 0.0"></feFuncA>
      </feComponentTransfer>
    </filter>
    <mask id="__lottie_element_14_2" mask-type="alpha">
      <g filter="url(#__lottie_element_20)">
        <rect width="700" height="600" x="0" y="0" fill="#ffffff" opacity="0"></rect>
        <use xlink:href="#__lottie_element_14"></use>
      </g>
    </mask>
    <g id="__lottie_element_21">
      <g style="display: block;" transform="matrix(1,0,0,1,343.156005859375,300.0379943847656)" opacity="1">
        <g opacity="1" transform="matrix(1,0,0,1,0,0)">
          <path fill="rgb(1,1,1)" fill-opacity="1"
            d=" M170.63400268554688,-121.9229965209961 C170.63400268554688,-121.9229965209961 170.63400268554688,-121.9229965209961 170.63400268554688,-121.9229965209961 C136.95399475097656,-155.60299682617188 82.34700012207031,-155.60299682617188 48.66699981689453,-121.9229965209961 C48.66699981689453,-121.9229965209961 48.66699981689453,-121.9229965209961 48.66699981689453,-121.9229965209961 C48.584999084472656,-121.84100341796875 48.505001068115234,-121.75700378417969 48.42300033569336,-121.67400360107422 C48.42300033569336,-121.67400360107422 7.6519999504089355,-81.13400268554688 7.6519999504089355,-81.13400268554688 C7.6519999504089355,-81.13400268554688 -73.927001953125,-162.71299743652344 -73.927001953125,-162.71299743652344 C-73.927001953125,-162.71299743652344 -195.8939971923828,-40.744998931884766 -195.8939971923828,-40.744998931884766 C-195.8939971923828,-40.744998931884766 7.563000202178955,162.71299743652344 7.563000202178955,162.71299743652344 C7.563000202178955,162.71299743652344 168.96600341796875,1.7120000123977661 170.63400268554688,0.04399999976158142 C170.63400268554688,0.04399999976158142 170.63400268554688,0.04399999976158142 170.63400268554688,0.04399999976158142 C204.31399536132812,-33.63600158691406 204.31399536132812,-88.24299621582031 170.63400268554688,-121.9229965209961z">
          </path>
        </g>
      </g>
    </g>
    <filter id="__lottie_element_27" filterUnits="objectBoundingBox" x="0%" y="0%" width="100%" height="100%">
      <feComponentTransfer in="SourceGraphic">
        <feFuncA type="table" tableValues="1.0 0.0"></feFuncA>
      </feComponentTransfer>
    </filter>
    <mask id="__lottie_element_21_2" mask-type="alpha">
      <g filter="url(#__lottie_element_27)">
        <rect width="700" height="600" x="0" y="0" fill="#ffffff" opacity="0"></rect>
        <use xlink:href="#__lottie_element_21"></use>
      </g>
    </mask>
  </defs>
  <g clip-path="url(#__lottie_element_2)">
    <g mask="url(#__lottie_element_21_2)" style="display: block;">
      <g transform="matrix(1,0,0,1,324.70001220703125,300)" opacity="1">
        <g opacity="1" transform="matrix(1,0,0,1,0,0)">
          <path fill="rgb(234,172,0)" fill-opacity="1"
            d=" M-56.064998626708984,-284.6419982910156 C-56.064998626708984,-284.6419982910156 -300,-40.707000732421875 -300,-40.707000732421875 C-300,-40.707000732421875 25.349000930786133,284.6419982910156 25.349000930786133,284.6419982910156 C25.349000930786133,284.6419982910156 247.83200073242188,62.7130012512207 249.4810028076172,61.06399917602539 C265.91900634765625,44.625999450683594 278.66400146484375,25.415000915527344 287.3630065917969,3.9619998931884766 C295.74798583984375,-16.71500015258789 300,-38.53900146484375 300,-60.902000427246094 C300,-83.26499938964844 295.74798583984375,-105.08899688720703 287.3630065917969,-125.76599884033203 C278.66400146484375,-147.21800231933594 265.91900634765625,-166.42999267578125 249.47999572753906,-182.86900329589844 C233.04100036621094,-199.30799865722656 213.8280029296875,-212.0540008544922 192.37600708007812,-220.7530059814453 C171.697998046875,-229.13800048828125 149.875,-233.38999938964844 127.51200103759766,-233.38999938964844 C105.14900207519531,-233.38999938964844 83.32499694824219,-229.13800048828125 62.64799880981445,-220.7530059814453 C50.04600143432617,-215.64300537109375 38.21799850463867,-209.13699340820312 27.270999908447266,-201.30599975585938 C27.270999908447266,-201.30599975585938 -56.064998626708984,-284.6419982910156 -56.064998626708984,-284.6419982910156 C-56.064998626708984,-284.6419982910156 -56.064998626708984,-284.6419982910156 -56.064998626708984,-284.6419982910156z">
          </path>
        </g>
      </g>
    </g>
    <g mask="url(#__lottie_element_21_2)" style="display: block;">
      <g transform="matrix(1,0,0,1,330.6449890136719,300.7539978027344)" opacity="1">
        <g opacity="1" transform="matrix(1,0,0,1,0,0)">
          <path fill="rgb(0,216,0)" fill-opacity="1"
            d=" M-62.01900100708008,-243.99899291992188 C-62.01900100708008,-243.99899291992188 -265.2980041503906,-40.720001220703125 -265.2980041503906,-40.720001220703125 C-265.2980041503906,-40.720001220703125 19.42099952697754,243.99899291992188 19.42099952697754,243.99899291992188 C19.42099952697754,243.99899291992188 221.54299926757812,42.37900161743164 223.197998046875,40.7239990234375 C236.9010009765625,27.020999908447266 247.5229949951172,11.013999938964844 254.7689971923828,-6.854000091552734 C261.7560119628906,-24.08300018310547 265.2980041503906,-42.270999908447266 265.2980041503906,-60.91400146484375 C265.2980041503906,-79.55699920654297 261.7550048828125,-97.74600219726562 254.76800537109375,-114.9749984741211 C247.5229949951172,-132.8419952392578 236.9010009765625,-148.8509979248047 223.197998046875,-162.5540008544922 C209.4949951171875,-176.2570037841797 193.48699951171875,-186.87899780273438 175.61900329589844,-194.125 C158.38999938964844,-201.11199951171875 140.2010040283203,-204.6540069580078 121.55799865722656,-204.6540069580078 C102.91500091552734,-204.6540069580078 84.72699737548828,-201.11199951171875 67.49800109863281,-194.125 C49.64500045776367,-186.88499450683594 33.64799880981445,-176.27499389648438 19.95199966430664,-162.58700561523438 C19.95199966430664,-162.58700561523438 19.95199966430664,-162.58700561523438 19.95199966430664,-162.58700561523438 C19.926000595092773,-162.56100463867188 19.829999923706055,-162.46499633789062 19.672000885009766,-162.30799865722656 C19.672000885009766,-162.30799865722656 -62.01900100708008,-243.99899291992188 -62.01900100708008,-243.99899291992188 C-62.01900100708008,-243.99899291992188 -62.01900100708008,-243.99899291992188 -62.01900100708008,-243.99899291992188z">
          </path>
        </g>
      </g>
    </g>
    <g mask="url(#__lottie_element_21_2)" style="display: block;">
      <g transform="matrix(1,0,0,1,336.60699462890625,300.0249938964844)" opacity="1">
        <g opacity="1" transform="matrix(1,0,0,1,0,0)">
          <path fill="rgb(255,166,215)" fill-opacity="1"
            d=" M-67.9729995727539,-203.3560028076172 C-67.9729995727539,-203.3560028076172 -230.5959930419922,-40.733001708984375 -230.5959930419922,-40.733001708984375 C-230.5959930419922,-40.733001708984375 13.491999626159668,203.3560028076172 13.491999626159668,203.3560028076172 C13.491999626159668,203.3560028076172 195.25399780273438,22.04599952697754 196.91600036621094,20.384000778198242 C207.88299560546875,9.416999816894531 216.3820037841797,-3.38700008392334 222.1739959716797,-17.670000076293945 C227.76300048828125,-31.451000213623047 230.5959930419922,-46.005001068115234 230.5959930419922,-60.926998138427734 C230.5959930419922,-75.8489990234375 227.76300048828125,-90.40299987792969 222.1739959716797,-104.18399810791016 C216.3820037841797,-118.46700286865234 207.88400268554688,-131.27099609375 196.91600036621094,-142.23899841308594 C185.947998046875,-153.20700073242188 173.1439971923828,-161.7050018310547 158.86099243164062,-167.4969940185547 C145.0800018310547,-173.08599853515625 130.5260009765625,-175.91900634765625 115.60399627685547,-175.91900634765625 C100.68199920654297,-175.91900634765625 86.12799835205078,-173.08599853515625 72.34700012207031,-167.4969940185547 C58.06399917602539,-161.7050018310547 45.26100158691406,-153.20700073242188 34.292999267578125,-142.23899841308594 C34.17300033569336,-142.11900329589844 13.663000106811523,-121.71900177001953 13.663000106811523,-121.71900177001953 C13.663000106811523,-121.71900177001953 -67.9729995727539,-203.3560028076172 -67.9729995727539,-203.3560028076172 C-67.9729995727539,-203.3560028076172 -67.9729995727539,-203.3560028076172 -67.9729995727539,-203.3560028076172z">
          </path>
        </g>
      </g>
    </g>
    <g mask="url(#__lottie_element_14_2)" style="display: none;">
      <g transform="matrix(0.94325852394104,0.09247344732284546,-0.09247344732284546,0.94325852394104,382.13494873046875,306.55950927734375)"
        opacity="1">
        <g opacity="1" transform="matrix(1,0,0,1,0,0)">
          <path fill="rgb(1,1,1)" fill-opacity="1"
            d=" M-33.051998138427734,154.947998046875 C-33.051998138427734,154.947998046875 128.3509979248047,-6.052000045776367 130.0189971923828,-7.71999979019165 C130.0189971923828,-7.71999979019165 130.0189971923828,-7.71999979019165 130.0189971923828,-7.71999979019165 C163.69900512695312,-41.400001525878906 163.69900512695312,-96.00800323486328 130.0189971923828,-129.68800354003906 C130.0189971923828,-129.68800354003906 130.0189971923828,-129.68800354003906 130.0189971923828,-129.68800354003906 C96.33899688720703,-163.3679962158203 41.731998443603516,-163.3679962158203 8.052000045776367,-129.68800354003906 C8.052000045776367,-129.68800354003906 8.050999641418457,-129.68800354003906 8.050999641418457,-129.68800354003906 C7.968999862670898,-129.6060028076172 7.889999866485596,-129.52099609375 7.808000087738037,-129.43800354003906 C7.808000087738037,-129.43800354003906 -155.2790069580078,32.72100067138672 -155.2790069580078,32.72100067138672 C-155.2790069580078,32.72100067138672 -33.051998138427734,154.947998046875 -33.051998138427734,154.947998046875z M88.8280029296875,-48.154998779296875 C88.53600311279297,-47.862998962402344 -33.04100036621094,73.66999816894531 -33.04100036621094,73.66999816894531 C-33.04100036621094,73.66999816894531 -73.65299987792969,33.05799865722656 -73.65299987792969,33.05799865722656 C-73.65299987792969,33.05799865722656 47.880001068115234,-88.51899719238281 48.172000885009766,-88.81099700927734 C59.39899826049805,-100.03800201416016 77.60099792480469,-100.03800201416016 88.8280029296875,-88.81099700927734 C100.05500030517578,-77.58399963378906 100.05500030517578,-59.38199996948242 88.8280029296875,-48.154998779296875z">
          </path>
          <path fill="rgb(255,166,215)" fill-opacity="1"
            d=" M88.8280029296875,-48.154998779296875 C88.53600311279297,-47.862998962402344 -33.04100036621094,73.66999816894531 -33.04100036621094,73.66999816894531 C-33.04100036621094,73.66999816894531 -73.65299987792969,33.05799865722656 -73.65299987792969,33.05799865722656 C-73.65299987792969,33.05799865722656 47.880001068115234,-88.51899719238281 48.172000885009766,-88.81099700927734 C59.39899826049805,-100.03800201416016 77.60099792480469,-100.03800201416016 88.8280029296875,-88.81099700927734 C100.05500030517578,-77.58399963378906 100.05500030517578,-59.38199996948242 88.8280029296875,-48.154998779296875z">
          </path>
        </g>
      </g>
    </g>
    <g mask="url(#__lottie_element_7_2)" style="display: none;">
      <g transform="matrix(0.94325852394104,0.09247344732284546,-0.09247344732284546,0.94325852394104,-497.94097900390625,-295.3803405761719)"
        opacity="1">
        <g opacity="1" transform="matrix(1,0,0,1,878.1519775390625,499.55999755859375)">
          <path fill="rgb(1,1,1)" fill-opacity="1"
            d=" M-0.2669999897480011,-122.23400115966797 C-0.2669999897480011,-122.23400115966797 121.89399719238281,0 121.89399719238281,0 C121.89399719238281,0 0.026000000536441803,121.91200256347656 0.026000000536441803,121.91200256347656 C0.026000000536441803,121.91200256347656 -122.23400115966797,-0.2669999897480011 -122.23400115966797,-0.2669999897480011 C-122.23400115966797,-0.2669999897480011 -0.2669999897480011,-122.23400115966797 -0.2669999897480011,-122.23400115966797z M20.327999114990234,20.327999114990234 C9.10099983215332,31.55500030517578 -9.10099983215332,31.55500030517578 -20.327999114990234,20.327999114990234 C-31.55500030517578,9.10099983215332 -31.55500030517578,-9.10099983215332 -20.327999114990234,-20.327999114990234 C-9.10099983215332,-31.55500030517578 9.10099983215332,-31.55500030517578 20.327999114990234,-20.327999114990234 C31.55500030517578,-9.10099983215332 31.55500030517578,9.10099983215332 20.327999114990234,20.327999114990234z">
          </path>
          <path fill="rgb(255,166,215)" fill-opacity="1"
            d=" M20.327999114990234,20.327999114990234 C9.10099983215332,31.55500030517578 -9.10099983215332,31.55500030517578 -20.327999114990234,20.327999114990234 C-31.55500030517578,9.10099983215332 -31.55500030517578,-9.10099983215332 -20.327999114990234,-20.327999114990234 C-9.10099983215332,-31.55500030517578 9.10099983215332,-31.55500030517578 20.327999114990234,-20.327999114990234 C31.55500030517578,-9.10099983215332 31.55500030517578,9.10099983215332 20.327999114990234,20.327999114990234z">
          </path>
        </g>
      </g>
    </g>
    <g style="display: block;" transform="matrix(1,0,0,1,-609.25,-240.00003051757812)" opacity="1">
      <g opacity="1" transform="matrix(1,0,0,1,951.8109741210938,540.0380249023438)">
        <g opacity="1" transform="matrix(1,0,0,1,0,0)">
          <path fill="rgb(1,1,1)" fill-opacity="1"
            d=" M170.63400268554688,-121.9229965209961 C170.63400268554688,-121.9229965209961 170.63400268554688,-121.9229965209961 170.63400268554688,-121.9229965209961 C136.95399475097656,-155.60299682617188 82.34700012207031,-155.60299682617188 48.66699981689453,-121.9229965209961 C48.66699981689453,-121.9229965209961 48.66699981689453,-121.9229965209961 48.66699981689453,-121.9229965209961 C48.584999084472656,-121.84100341796875 48.505001068115234,-121.75700378417969 48.42300033569336,-121.67400360107422 C48.42300033569336,-121.67400360107422 7.6519999504089355,-81.13400268554688 7.6519999504089355,-81.13400268554688 C7.6519999504089355,-81.13400268554688 -73.927001953125,-162.71299743652344 -73.927001953125,-162.71299743652344 C-73.927001953125,-162.71299743652344 -195.8939971923828,-40.744998931884766 -195.8939971923828,-40.744998931884766 C-195.8939971923828,-40.744998931884766 7.563000202178955,162.71299743652344 7.563000202178955,162.71299743652344 C7.563000202178955,162.71299743652344 168.96600341796875,1.7120000123977661 170.63400268554688,0.04399999976158142 C170.63400268554688,0.04399999976158142 170.63400268554688,0.04399999976158142 170.63400268554688,0.04399999976158142 C204.31399536132812,-33.63600158691406 204.31399536132812,-88.24299621582031 170.63400268554688,-121.9229965209961z">
          </path>
        </g>
      </g>
      <g opacity="1" transform="matrix(1,0,0,1,1004.2239990234375,536.02197265625)">
        <path fill="rgb(255,166,215)" fill-opacity="1"
          d=" M77.02999877929688,-36.374000549316406 C76.73799896240234,-36.082000732421875 -44.8380012512207,85.44999694824219 -44.8380012512207,85.44999694824219 C-44.8380012512207,85.44999694824219 -85.44999694824219,44.8380012512207 -85.44999694824219,44.8380012512207 C-85.44999694824219,44.8380012512207 36.082000732421875,-76.73799896240234 36.374000549316406,-77.02999877929688 C47.60100173950195,-88.25700378417969 65.8030014038086,-88.25700378417969 77.02999877929688,-77.02999877929688 C88.25700378417969,-65.8030014038086 88.25700378417969,-47.60100173950195 77.02999877929688,-36.374000549316406z">
        </path>
      </g>
      <g opacity="1" transform="matrix(1,0,0,1,878.1519775390625,499.55999755859375)">
        <path fill="rgb(255,166,215)" fill-opacity="1"
          d=" M20.327999114990234,20.327999114990234 C9.10099983215332,31.55500030517578 -9.10099983215332,31.55500030517578 -20.327999114990234,20.327999114990234 C-31.55500030517578,9.10099983215332 -31.55500030517578,-9.10099983215332 -20.327999114990234,-20.327999114990234 C-9.10099983215332,-31.55500030517578 9.10099983215332,-31.55500030517578 20.327999114990234,-20.327999114990234 C31.55500030517578,-9.10099983215332 31.55500030517578,9.10099983215332 20.327999114990234,20.327999114990234z">
        </path>
      </g>
    </g>
  </g>
</svg>